<svg xmlns="http://www.w3.org/2000/svg" version="1.1" xmlns:xlink="http://www.w3.org/1999/xlink" xmlns:svgjs="http://svgjs.dev/svgjs" width="1500" height="617" viewBox="0 0 1500 617"><g transform="matrix(1,0,0,1,-0.9090909090909918,-0.630978905927293)"><svg viewBox="0 0 396 163" data-background-color="#000000" preserveAspectRatio="xMidYMid meet" height="617" width="1500" xmlns="http://www.w3.org/2000/svg" xmlns:xlink="http://www.w3.org/1999/xlink"><g id="tight-bounds" transform="matrix(1,0,0,1,0.2400000000000091,0.1666929686647478)"><svg viewBox="0 0 395.52 162.6666140626705" height="162.6666140626705" width="395.52"><g><svg viewBox="0 0 395.52 162.6666140626705" height="162.6666140626705" width="395.52"><g transform="matrix(1,0,0,1,0,100.53449335163289)"><svg viewBox="0 0 395.52 62.13212071103761" height="62.13212071103761" width="395.52"><g id="textblocktransform"><svg viewBox="0 0 395.52 62.13212071103761" height="62.13212071103761" width="395.52" id="textblock"><g><svg viewBox="0 0 395.52 62.13212071103761" height="62.13212071103761" width="395.52"><g transform="matrix(1,0,0,1,0,0)"><svg width="395.52" viewBox="3 -37.5 241.88 38" height="62.13212071103761" data-palette-color="#e0cdcd"><path d="M13.2 0.5L13.2 0.5Q10.1 0.5 7.95-0.08 5.8-0.65 3.5-1.8L3.5-1.8 3-10 3.8-10 6.25-4.7Q8.05-3.2 9.75-2.53 11.45-1.85 13.2-1.85L13.2-1.85Q16.15-1.85 17.82-3.4 19.5-4.95 19.5-7.6L19.5-7.6Q19.5-9.8 18.53-11.05 17.55-12.3 15.73-13.28 13.9-14.25 11.4-15.5L11.4-15.5Q9.05-16.7 7.4-17.85 5.75-19 4.9-20.53 4.05-22.05 4.05-24.35L4.05-24.35Q4.05-26.05 4.88-27.68 5.7-29.3 7.13-30.63 8.55-31.95 10.33-32.73 12.1-33.5 14-33.5L14-33.5Q16.3-33.5 18.25-32.95 20.2-32.4 22.25-31.4L22.25-31.4 22.75-23.4 21.95-23.4 19.65-28.65Q17.9-29.95 16.6-30.53 15.3-31.1 13.6-31.1L13.6-31.1Q11.4-31.1 9.98-29.6 8.55-28.1 8.55-25.9L8.55-25.9Q8.55-23.35 10.1-21.93 11.65-20.5 14.95-18.9L14.95-18.9Q18-17.4 19.95-16.13 21.9-14.85 22.85-13.2 23.8-11.55 23.8-9L23.8-9Q23.8-6.65 22.8-4.88 21.8-3.1 20.23-1.9 18.65-0.7 16.78-0.1 14.9 0.5 13.2 0.5ZM34.35 0.5L34.35 0.5Q32 0.5 30.45-0.88 28.9-2.25 28.9-4.7L28.9-4.7Q28.9-7.15 30.72-8.95 32.55-10.75 36.85-11.75L36.85-11.75 41.6-12.85 41.6-16.5Q41.6-18.2 40.22-19.43 38.85-20.65 37.1-20.65L37.1-20.65Q35.2-20.65 34.45-19.63 33.7-18.6 33.7-16.9L33.7-16.9 33.7-15.5 33.45-15.25 30.85-15.25Q30.1-15.25 29.82-15.5 29.55-15.75 29.55-16.65L29.55-16.65Q29.55-17.75 30.2-18.9 30.85-20.05 32.2-20.9L32.2-20.9Q33.6-21.8 35.12-22.4 36.65-23 38.4-23L38.4-23Q40.15-23 41.82-22.5 43.5-22 44.55-20.83 45.6-19.65 45.6-17.55L45.6-17.55 45.6-3.35Q45.95-3 46.6-2.75 47.25-2.5 48.4-2.5L48.4-2.5 50.3-2.5 50.45-2.4 50.45-2.25Q49.85-1.15 48.67-0.33 47.5 0.5 45.8 0.5L45.8 0.5Q44.25 0.5 43.27-0.33 42.3-1.15 41.9-2.5L41.9-2.5 41.6-2.5Q40.3-1.2 38.37-0.35 36.45 0.5 34.35 0.5ZM32.8-5.7L32.8-5.7Q32.8-2.6 36.55-2.6L36.55-2.6Q37.75-2.6 38.92-2.85 40.1-3.1 41.6-3.75L41.6-3.75 41.6-11.15Q37.6-10.4 35.75-9.58 33.9-8.75 33.35-7.8 32.8-6.85 32.8-5.7ZM63.8 0L53.4 0 53.4-0.8 56.55-2.4 56.55-17.3 53.55-19.9 53.55-20.25 59.75-23 60.05-23 60.5-19.3 60.75-19.3Q62.6-21.2 64.32-22.1 66.05-23 68.09-23L68.09-23Q70.5-23 72.2-21.93 73.9-20.85 74.4-18.7L74.4-18.7 74.55-18.7Q76.65-20.9 78.47-21.95 80.3-23 82.5-23L82.5-23Q85.3-23 87.12-21.53 88.95-20.05 88.95-17.15L88.95-17.15 88.95-2.4 92.09-0.8 92.09 0 81.4 0 81.4-0.8 84.95-2.4 84.95-14.8Q84.95-17 83.62-18.15 82.3-19.3 80.25-19.3L80.25-19.3Q78.55-19.3 77.05-18.75 75.55-18.2 74.55-17.1L74.55-17.1 74.55-2.4 78-0.8 78 0 67.2 0 67.2-0.8 70.55-2.4 70.55-14.8Q70.55-17 69.22-18.15 67.9-19.3 65.84-19.3L65.84-19.3Q64.59-19.3 63.05-18.85 61.5-18.4 60.55-17.55L60.55-17.55 60.55-2.4 63.8-0.8 63.8 0ZM106.94 0.5L106.94 0.5Q102.09 0.5 99.29-2.45 96.49-5.4 96.49-10.25L96.49-10.25Q96.49-14 97.97-16.88 99.44-19.75 101.87-21.38 104.29-23 107.14-23L107.14-23Q111.09-23 113.37-20.25 115.64-17.5 115.64-12.35L115.64-12.35 115.39-12.1 100.44-12.1Q100.49-9.8 101.34-7.78 102.19-5.75 104.07-4.5 105.94-3.25 109.09-3.25L109.09-3.25Q111.84-3.25 115.54-5.25L115.54-5.25 115.69-5.25 115.69-4.75Q114.54-2.6 112.27-1.05 109.99 0.5 106.94 0.5ZM106.34-20.8L106.34-20.8Q103.94-20.8 102.42-19.13 100.89-17.45 100.54-14.4L100.54-14.4 111.84-14.4Q111.29-17.8 109.92-19.3 108.54-20.8 106.34-20.8ZM131.14 0.5L131.14 0.5Q126.29 0.5 123.49-2.45 120.69-5.4 120.69-10.25L120.69-10.25Q120.69-14 122.17-16.88 123.64-19.75 126.07-21.38 128.49-23 131.34-23L131.34-23Q135.29-23 137.56-20.25 139.84-17.5 139.84-12.35L139.84-12.35 139.59-12.1 124.64-12.1Q124.69-9.8 125.54-7.78 126.39-5.75 128.27-4.5 130.14-3.25 133.29-3.25L133.29-3.25Q136.04-3.25 139.74-5.25L139.74-5.25 139.89-5.25 139.89-4.75Q138.74-2.6 136.47-1.05 134.19 0.5 131.14 0.5ZM130.54-20.8L130.54-20.8Q128.14-20.8 126.62-19.13 125.09-17.45 124.74-14.4L124.74-14.4 136.04-14.4Q135.49-17.8 134.12-19.3 132.74-20.8 130.54-20.8ZM155.49 0L144.79 0 144.79-0.8 147.94-2.4 147.94-31.8 144.94-34.4 144.94-34.75 151.64-37.5 151.94-37.5 151.94-12.75 159.99-19.6 159.99-19.9 157.54-21.7 157.54-22.5 167.04-22.5 167.04-21.7 163.84-19.95 155.59-13.6 165.69-2.5 168.89-0.8 168.89 0 162.29 0 160.39-2.6 151.94-12 151.94-2.25 155.49-0.8 155.49 0ZM180.94 0.5L180.94 0.5Q178.59 0.5 176.89 0.1 175.19-0.3 173.44-1.2L173.44-1.2 173.44-6.8 174.14-6.8 175.74-4.05Q177.29-1.3 180.79-1.3L180.79-1.3Q182.79-1.3 183.91-2.25 185.04-3.2 185.04-4.85L185.04-4.85Q185.04-6.3 184.34-7.1 183.64-7.9 182.36-8.53 181.09-9.15 179.34-9.95L179.34-9.95Q176.79-11.1 175.41-12.48 174.04-13.85 174.04-16.35L174.04-16.35Q174.04-18.2 175.09-19.7 176.14-21.2 177.76-22.1 179.39-23 181.14-23L181.14-23Q182.99-23 184.54-22.55 186.09-22.1 187.69-21.3L187.69-21.3 187.69-15.85 186.99-15.85 185.34-18.5Q184.49-19.85 183.49-20.45 182.49-21.05 181.34-21.05L181.34-21.05Q179.64-21.05 178.61-20.2 177.59-19.35 177.59-17.85L177.59-17.85Q177.59-16.15 178.81-15.28 180.04-14.4 182.39-13.3L182.39-13.3Q183.79-12.6 185.21-11.9 186.64-11.2 187.56-9.93 188.49-8.65 188.49-6.3L188.49-6.3Q188.49-4.1 187.29-2.58 186.09-1.05 184.34-0.28 182.59 0.5 180.94 0.5ZM204.98 0L194.28 0 194.28-0.8 197.43-2.4 197.43-31.8 194.43-34.4 194.43-34.75 201.13-37.5 201.43-37.5 201.43-19.3 201.63-19.3Q203.53-21.2 205.31-22.1 207.08-23 209.23-23L209.23-23Q212.18-23 214.06-21.53 215.93-20.05 215.93-17.15L215.93-17.15 215.93-2.4 219.08-0.8 219.08 0 208.38 0 208.38-0.8 211.93-2.25 211.93-14.8Q211.93-17 210.56-18.15 209.18-19.3 206.98-19.3L206.98-19.3Q205.63-19.3 204.01-18.85 202.38-18.4 201.43-17.55L201.43-17.55 201.43-2.25 204.98-0.8 204.98 0ZM228.78 0.5L228.78 0.5Q226.43 0.5 224.88-0.88 223.33-2.25 223.33-4.7L223.33-4.7Q223.33-7.15 225.16-8.95 226.98-10.75 231.28-11.75L231.28-11.75 236.03-12.85 236.03-16.5Q236.03-18.2 234.66-19.43 233.28-20.65 231.53-20.65L231.53-20.65Q229.63-20.65 228.88-19.63 228.13-18.6 228.13-16.9L228.13-16.9 228.13-15.5 227.88-15.25 225.28-15.25Q224.53-15.25 224.26-15.5 223.98-15.75 223.98-16.65L223.98-16.65Q223.98-17.75 224.63-18.9 225.28-20.05 226.63-20.9L226.63-20.9Q228.03-21.8 229.56-22.4 231.08-23 232.83-23L232.83-23Q234.58-23 236.26-22.5 237.93-22 238.98-20.83 240.03-19.65 240.03-17.55L240.03-17.55 240.03-3.35Q240.38-3 241.03-2.75 241.68-2.5 242.83-2.5L242.83-2.5 244.73-2.5 244.88-2.4 244.88-2.25Q244.28-1.15 243.11-0.33 241.93 0.5 240.23 0.5L240.23 0.5Q238.68 0.5 237.71-0.33 236.73-1.15 236.33-2.5L236.33-2.5 236.03-2.5Q234.73-1.2 232.81-0.35 230.88 0.5 228.78 0.5ZM227.23-5.7L227.23-5.7Q227.23-2.6 230.98-2.6L230.98-2.6Q232.18-2.6 233.36-2.85 234.53-3.1 236.03-3.75L236.03-3.75 236.03-11.15Q232.03-10.4 230.18-9.58 228.33-8.75 227.78-7.8 227.23-6.85 227.23-5.7Z" opacity="1" transform="matrix(1,0,0,1,0,0)" fill="#e0cdcd" class="wordmark-text-0" data-fill-palette-color="primary" id="text-0"></path></svg></g></svg></g></svg></g></svg></g><g transform="matrix(1,0,0,1,135.65383907211896,0)"><svg viewBox="0 0 124.21232185576207 85.86659082265398" height="85.86659082265398" width="124.21232185576207"><g><svg xmlns="http://www.w3.org/2000/svg" xmlns:xlink="http://www.w3.org/1999/xlink" version="1.1" x="8" y="0" viewBox="2.3 12.100000000000001 95.40000000000002 75.70000000000002" enable-background="new 0 0 100 100" xml:space="preserve" height="85.86659082265398" width="108.21232185576207" class="icon-icon-0" data-fill-palette-color="accent" id="icon-0"><path d="M84.7 25.7c-0.5-2.2-1.3-4.4-2.4-6.5 3.2 1.2 5.8 3.5 7.4 6.5H84.7zM72.2 19.2c-3.2 1.2-5.9 3.5-7.6 6.5h5C70.2 23.4 71.1 21.2 72.2 19.2zM76.1 18.3c-1.5 2.3-2.7 4.8-3.4 7.4h9c-0.7-2.6-1.8-5.1-3.3-7.4-0.4 0-0.8-0.1-1.3-0.1C76.8 18.3 76.5 18.3 76.1 18.3zM15.4 66.2V72h61.8v-5-2.9V57c2.6 0 5.2-0.4 7.7-1.2v8.4 2.9 4.5c0 1 0.3 2 1 2.7l3.9 4.8c0.3 0.4 0.5 0.8 0.5 1.3v2.2c0 2.9-2.3 5.2-5.2 5.2H7.5c-2.9 0-5.2-2.3-5.2-5.2v-2.2c0-0.5 0.2-0.9 0.5-1.3l4-4.9c0.6-0.8 1-1.7 1-2.7v-5.7-1.7V32.6c0-4.2 3.4-7.7 7.7-7.7H54c-0.8 2.5-1.2 5.1-1.2 7.7H15.4c0 0 0 0 0 0v31.6V66.2zM38 80.3c0 1.5 1.2 2.7 2.7 2.7H52c1.5 0 2.7-1.2 2.7-2.7v-0.6H38V80.3zM68.8 32.8c0-1.4 0.1-2.8 0.3-4.2h-5.7c-0.4 1.3-0.6 2.6-0.6 4 0 1.4 0.2 2.7 0.6 3.9h5.6C68.9 35.3 68.8 34 68.8 32.8zM64.6 39.5c1.6 2.9 4.2 5.2 7.3 6.5-1.1-2.1-1.8-4.2-2.4-6.5H64.6zM71.7 32.8c0 1.3 0.1 2.5 0.3 3.8h10.3c0.2-1.4 0.3-2.7 0.3-4.1 0-1.3-0.1-2.5-0.3-3.8H72.1C71.8 30 71.7 31.4 71.7 32.8zM91.7 18.1c8 8 8 21 0 28.9-6.7 6.7-17 7.8-24.8 3.2l0 0c-3.1 2.3-6.4 2.7-8.7 2.4-0.8-0.1-0.9-1.2-0.2-1.5 2.1-1 3.4-3.1 4.2-4.8l-0.2-0.2c-7.1-8-6.8-20.3 0.9-28C70.7 10.1 83.7 10.1 91.7 18.1zM89.4 20.4c-3.3-3.3-7.6-5.1-12.2-5.1-4.6 0-8.9 1.8-12.2 5.1C61.8 23.7 60 28 60 32.6c0 4.6 1.8 8.9 5.1 12.2 3.3 3.3 7.6 5.1 12.2 5.1 4.6 0 8.9-1.8 12.2-5.1 3.3-3.3 5.1-7.6 5.1-12.2C94.5 28 92.7 23.7 89.4 20.4zM75.9 46.9c0.4 0 0.9 0.1 1.3 0.1 0.3 0 0.7 0 1 0 1.5-2.3 2.7-4.8 3.4-7.4h-9.1C73.3 42.1 74.4 44.6 75.9 46.9zM85.5 32.4c0 1.4-0.1 2.8-0.3 4.1H91c0.4-1.3 0.6-2.6 0.6-3.9 0-1.4-0.2-2.7-0.6-4h-5.7C85.4 29.9 85.5 31.1 85.5 32.4zM82.1 46.1c3.3-1.2 6-3.6 7.7-6.6h-5.1C84.1 41.8 83.2 44 82.1 46.1z" fill="#3bd142" data-fill-palette-color="accent"></path></svg></g></svg></g><g><rect width="135.65383907211896" height="5.603138766069946" y="79.26345205658403" x="259.866160927881" fill="#3bd142" data-fill-palette-color="accent"></rect><rect width="135.65383907211896" height="5.603138766069946" y="79.26345205658403" x="0" fill="#3bd142" data-fill-palette-color="accent"></rect><rect width="135.65383907211896" height="5.603138766069946" y="68.05717452444414" x="259.866160927881" fill="#3bd142" data-fill-palette-color="accent"></rect><rect width="135.65383907211896" height="5.603138766069946" y="68.05717452444414" x="0" fill="#3bd142" data-fill-palette-color="accent"></rect></g></svg></g><defs></defs></svg><rect width="395.52" height="162.6666140626705" fill="none" stroke="none" visibility="hidden"></rect></g></svg></g></svg>